<mxfile host="app.diagrams.net" modified="2024-01-11T16:04:29.100Z" agent="Mozilla/5.0 (Macintosh; Intel Mac OS X 10_15_7) AppleWebKit/605.1.15 (KHTML, like Gecko) Version/17.1 Safari/605.1.15" etag="2quoqnAwdEv_uAF273CO" version="22.1.18" type="device">
  <diagram name="Seite-1" id="5yZLBT5A5RAoVS_Xg-lV">
    <mxGraphModel dx="474" dy="281" grid="1" gridSize="10" guides="1" tooltips="1" connect="1" arrows="1" fold="1" page="1" pageScale="1" pageWidth="827" pageHeight="1169" math="0" shadow="0">
      <root>
        <mxCell id="0" />
        <mxCell id="1" parent="0" />
        <mxCell id="WUrqiauPszfEcTlT8KK8-7" value="" style="rounded=0;whiteSpace=wrap;html=1;" vertex="1" parent="1">
          <mxGeometry x="370" y="1245" width="190" height="130" as="geometry" />
        </mxCell>
        <mxCell id="HkP_gd-xjNYq4AOfFM9T-7" style="edgeStyle=orthogonalEdgeStyle;rounded=0;orthogonalLoop=1;jettySize=auto;html=1;" parent="1" source="HkP_gd-xjNYq4AOfFM9T-1" target="HkP_gd-xjNYq4AOfFM9T-5" edge="1">
          <mxGeometry relative="1" as="geometry" />
        </mxCell>
        <mxCell id="HkP_gd-xjNYq4AOfFM9T-8" style="edgeStyle=orthogonalEdgeStyle;rounded=0;orthogonalLoop=1;jettySize=auto;html=1;" parent="1" source="HkP_gd-xjNYq4AOfFM9T-1" target="HkP_gd-xjNYq4AOfFM9T-2" edge="1">
          <mxGeometry relative="1" as="geometry" />
        </mxCell>
        <mxCell id="HkP_gd-xjNYq4AOfFM9T-9" value="n" style="edgeLabel;html=1;align=center;verticalAlign=middle;resizable=0;points=[];" parent="HkP_gd-xjNYq4AOfFM9T-8" vertex="1" connectable="0">
          <mxGeometry x="-0.5455" relative="1" as="geometry">
            <mxPoint as="offset" />
          </mxGeometry>
        </mxCell>
        <mxCell id="HkP_gd-xjNYq4AOfFM9T-18" style="edgeStyle=orthogonalEdgeStyle;rounded=0;orthogonalLoop=1;jettySize=auto;html=1;" parent="1" source="HkP_gd-xjNYq4AOfFM9T-1" target="HkP_gd-xjNYq4AOfFM9T-10" edge="1">
          <mxGeometry relative="1" as="geometry" />
        </mxCell>
        <mxCell id="HkP_gd-xjNYq4AOfFM9T-19" value="i" style="edgeLabel;html=1;align=center;verticalAlign=middle;resizable=0;points=[];" parent="HkP_gd-xjNYq4AOfFM9T-18" vertex="1" connectable="0">
          <mxGeometry x="-0.1" relative="1" as="geometry">
            <mxPoint as="offset" />
          </mxGeometry>
        </mxCell>
        <mxCell id="HkP_gd-xjNYq4AOfFM9T-20" value="n" style="edgeLabel;html=1;align=center;verticalAlign=middle;resizable=0;points=[];" parent="HkP_gd-xjNYq4AOfFM9T-18" vertex="1" connectable="0">
          <mxGeometry y="-3" relative="1" as="geometry">
            <mxPoint as="offset" />
          </mxGeometry>
        </mxCell>
        <mxCell id="HkP_gd-xjNYq4AOfFM9T-1" value="MI" style="rounded=0;whiteSpace=wrap;html=1;strokeWidth=3;" parent="1" vertex="1">
          <mxGeometry x="240" y="110" width="50" height="30" as="geometry" />
        </mxCell>
        <mxCell id="HkP_gd-xjNYq4AOfFM9T-2" value="&quot;mental imagery&quot;" style="rounded=0;whiteSpace=wrap;html=1;" parent="1" vertex="1">
          <mxGeometry x="100" y="70" width="110" height="30" as="geometry" />
        </mxCell>
        <mxCell id="HkP_gd-xjNYq4AOfFM9T-5" value="&quot;mental simulation&quot;" style="rounded=0;whiteSpace=wrap;html=1;" parent="1" vertex="1">
          <mxGeometry x="100" y="150" width="110" height="30" as="geometry" />
        </mxCell>
        <mxCell id="HkP_gd-xjNYq4AOfFM9T-10" value="&quot;representations and the accompanying experience of sensory information without a direct external stimulus&quot;" style="rounded=0;whiteSpace=wrap;html=1;" parent="1" vertex="1">
          <mxGeometry x="350" y="100" width="230" height="50" as="geometry" />
        </mxCell>
        <mxCell id="HkP_gd-xjNYq4AOfFM9T-13" style="edgeStyle=orthogonalEdgeStyle;rounded=0;orthogonalLoop=1;jettySize=auto;html=1;" parent="1" source="HkP_gd-xjNYq4AOfFM9T-11" target="HkP_gd-xjNYq4AOfFM9T-12" edge="1">
          <mxGeometry relative="1" as="geometry" />
        </mxCell>
        <mxCell id="HkP_gd-xjNYq4AOfFM9T-14" value="n" style="edgeLabel;html=1;align=center;verticalAlign=middle;resizable=0;points=[];" parent="HkP_gd-xjNYq4AOfFM9T-13" vertex="1" connectable="0">
          <mxGeometry x="0.0333" relative="1" as="geometry">
            <mxPoint as="offset" />
          </mxGeometry>
        </mxCell>
        <mxCell id="HkP_gd-xjNYq4AOfFM9T-16" style="edgeStyle=orthogonalEdgeStyle;rounded=0;orthogonalLoop=1;jettySize=auto;html=1;" parent="1" source="HkP_gd-xjNYq4AOfFM9T-11" target="HkP_gd-xjNYq4AOfFM9T-15" edge="1">
          <mxGeometry relative="1" as="geometry" />
        </mxCell>
        <mxCell id="HkP_gd-xjNYq4AOfFM9T-17" value="n" style="edgeLabel;html=1;align=center;verticalAlign=middle;resizable=0;points=[];" parent="HkP_gd-xjNYq4AOfFM9T-16" vertex="1" connectable="0">
          <mxGeometry x="-0.05" y="-1" relative="1" as="geometry">
            <mxPoint as="offset" />
          </mxGeometry>
        </mxCell>
        <mxCell id="HkP_gd-xjNYq4AOfFM9T-11" value="IIC" style="rounded=0;whiteSpace=wrap;html=1;strokeWidth=3;" parent="1" vertex="1">
          <mxGeometry x="240" y="240" width="50" height="30" as="geometry" />
        </mxCell>
        <mxCell id="HkP_gd-xjNYq4AOfFM9T-12" value="“the mental simulation of a social interaction with a member or members of an outgroup category” (Crisp &amp;amp; Turner, 2009, p. 234)" style="rounded=0;whiteSpace=wrap;html=1;" parent="1" vertex="1">
          <mxGeometry x="350" y="220" width="210" height="70" as="geometry" />
        </mxCell>
        <mxCell id="HkP_gd-xjNYq4AOfFM9T-15" value="&quot;imagined intergroup contact&quot;" style="rounded=0;whiteSpace=wrap;html=1;" parent="1" vertex="1">
          <mxGeometry x="80" y="240" width="110" height="30" as="geometry" />
        </mxCell>
        <mxCell id="HkP_gd-xjNYq4AOfFM9T-21" value="" style="ellipse;whiteSpace=wrap;html=1;" parent="1" vertex="1">
          <mxGeometry x="190" y="340" width="250" height="180" as="geometry" />
        </mxCell>
        <mxCell id="HkP_gd-xjNYq4AOfFM9T-22" value="" style="ellipse;whiteSpace=wrap;html=1;fillColor=none;" parent="1" vertex="1">
          <mxGeometry x="210" y="370" width="140" height="120" as="geometry" />
        </mxCell>
        <mxCell id="HkP_gd-xjNYq4AOfFM9T-23" value="" style="ellipse;whiteSpace=wrap;html=1;fillColor=none;" parent="1" vertex="1">
          <mxGeometry x="274" y="380" width="140" height="120" as="geometry" />
        </mxCell>
        <mxCell id="HkP_gd-xjNYq4AOfFM9T-24" value="MI" style="text;html=1;strokeColor=none;fillColor=none;align=center;verticalAlign=middle;whiteSpace=wrap;rounded=0;" parent="1" vertex="1">
          <mxGeometry x="285" y="340" width="60" height="30" as="geometry" />
        </mxCell>
        <mxCell id="HkP_gd-xjNYq4AOfFM9T-25" value="MI of social interaction" style="text;html=1;strokeColor=none;fillColor=none;align=center;verticalAlign=middle;whiteSpace=wrap;rounded=0;" parent="1" vertex="1">
          <mxGeometry x="354" y="425" width="60" height="30" as="geometry" />
        </mxCell>
        <mxCell id="HkP_gd-xjNYq4AOfFM9T-26" value="MI of outgroups" style="text;html=1;strokeColor=none;fillColor=none;align=center;verticalAlign=middle;whiteSpace=wrap;rounded=0;" parent="1" vertex="1">
          <mxGeometry x="214" y="410" width="60" height="30" as="geometry" />
        </mxCell>
        <mxCell id="HkP_gd-xjNYq4AOfFM9T-27" value="IIC" style="text;html=1;strokeColor=none;fillColor=none;align=center;verticalAlign=middle;whiteSpace=wrap;rounded=0;" parent="1" vertex="1">
          <mxGeometry x="285" y="415" width="60" height="30" as="geometry" />
        </mxCell>
        <mxCell id="HkP_gd-xjNYq4AOfFM9T-28" value="MI" style="rounded=0;whiteSpace=wrap;html=1;strokeWidth=3;" parent="1" vertex="1">
          <mxGeometry x="389" y="585" width="91" height="30" as="geometry" />
        </mxCell>
        <mxCell id="HkP_gd-xjNYq4AOfFM9T-30" value="i" style="edgeStyle=orthogonalEdgeStyle;rounded=0;orthogonalLoop=1;jettySize=auto;html=1;" parent="1" source="HkP_gd-xjNYq4AOfFM9T-29" target="HkP_gd-xjNYq4AOfFM9T-28" edge="1">
          <mxGeometry relative="1" as="geometry" />
        </mxCell>
        <mxCell id="HkP_gd-xjNYq4AOfFM9T-33" style="edgeStyle=orthogonalEdgeStyle;rounded=0;orthogonalLoop=1;jettySize=auto;html=1;entryX=0;entryY=0.5;entryDx=0;entryDy=0;" parent="1" source="HkP_gd-xjNYq4AOfFM9T-29" target="HkP_gd-xjNYq4AOfFM9T-31" edge="1">
          <mxGeometry relative="1" as="geometry">
            <Array as="points">
              <mxPoint x="310" y="645" />
            </Array>
          </mxGeometry>
        </mxCell>
        <mxCell id="HkP_gd-xjNYq4AOfFM9T-35" value="i" style="edgeLabel;html=1;align=center;verticalAlign=middle;resizable=0;points=[];" parent="HkP_gd-xjNYq4AOfFM9T-33" vertex="1" connectable="0">
          <mxGeometry x="0.4495" relative="1" as="geometry">
            <mxPoint as="offset" />
          </mxGeometry>
        </mxCell>
        <mxCell id="HkP_gd-xjNYq4AOfFM9T-34" style="edgeStyle=orthogonalEdgeStyle;rounded=0;orthogonalLoop=1;jettySize=auto;html=1;entryX=0;entryY=0.5;entryDx=0;entryDy=0;" parent="1" source="HkP_gd-xjNYq4AOfFM9T-29" target="HkP_gd-xjNYq4AOfFM9T-32" edge="1">
          <mxGeometry relative="1" as="geometry">
            <Array as="points">
              <mxPoint x="300" y="695" />
            </Array>
          </mxGeometry>
        </mxCell>
        <mxCell id="HkP_gd-xjNYq4AOfFM9T-36" value="i" style="edgeLabel;html=1;align=center;verticalAlign=middle;resizable=0;points=[];" parent="HkP_gd-xjNYq4AOfFM9T-34" vertex="1" connectable="0">
          <mxGeometry x="0.6235" y="1" relative="1" as="geometry">
            <mxPoint as="offset" />
          </mxGeometry>
        </mxCell>
        <mxCell id="HkP_gd-xjNYq4AOfFM9T-29" value="IIC" style="rounded=0;whiteSpace=wrap;html=1;strokeWidth=3;" parent="1" vertex="1">
          <mxGeometry x="274" y="585" width="50" height="30" as="geometry" />
        </mxCell>
        <mxCell id="HkP_gd-xjNYq4AOfFM9T-31" value="MI of social interaction" style="rounded=0;whiteSpace=wrap;html=1;strokeWidth=3;" parent="1" vertex="1">
          <mxGeometry x="389" y="630" width="91" height="30" as="geometry" />
        </mxCell>
        <mxCell id="HkP_gd-xjNYq4AOfFM9T-32" value="MI of outgroup" style="rounded=0;whiteSpace=wrap;html=1;strokeWidth=3;" parent="1" vertex="1">
          <mxGeometry x="390" y="680" width="90" height="30" as="geometry" />
        </mxCell>
        <mxCell id="HkP_gd-xjNYq4AOfFM9T-37" value="&lt;b&gt;&lt;font style=&quot;font-size: 14px;&quot;&gt;Version A&lt;/font&gt;&lt;/b&gt;" style="text;html=1;strokeColor=none;fillColor=none;align=center;verticalAlign=middle;whiteSpace=wrap;rounded=0;" parent="1" vertex="1">
          <mxGeometry x="90" y="620" width="90" height="30" as="geometry" />
        </mxCell>
        <mxCell id="HkP_gd-xjNYq4AOfFM9T-38" value="MI" style="rounded=0;whiteSpace=wrap;html=1;strokeWidth=3;" parent="1" vertex="1">
          <mxGeometry x="450" y="835" width="91" height="30" as="geometry" />
        </mxCell>
        <mxCell id="HkP_gd-xjNYq4AOfFM9T-39" value="i" style="edgeStyle=orthogonalEdgeStyle;rounded=0;orthogonalLoop=1;jettySize=auto;html=1;entryX=0;entryY=0.5;entryDx=0;entryDy=0;" parent="1" source="HkP_gd-xjNYq4AOfFM9T-44" target="HkP_gd-xjNYq4AOfFM9T-45" edge="1">
          <mxGeometry relative="1" as="geometry" />
        </mxCell>
        <mxCell id="HkP_gd-xjNYq4AOfFM9T-40" style="edgeStyle=orthogonalEdgeStyle;rounded=0;orthogonalLoop=1;jettySize=auto;html=1;entryX=1;entryY=0.5;entryDx=0;entryDy=0;startArrow=classic;startFill=1;endArrow=none;endFill=0;exitX=0.5;exitY=0;exitDx=0;exitDy=0;" parent="1" source="HkP_gd-xjNYq4AOfFM9T-38" target="HkP_gd-xjNYq4AOfFM9T-45" edge="1">
          <mxGeometry relative="1" as="geometry" />
        </mxCell>
        <mxCell id="HkP_gd-xjNYq4AOfFM9T-41" value="i" style="edgeLabel;html=1;align=center;verticalAlign=middle;resizable=0;points=[];" parent="HkP_gd-xjNYq4AOfFM9T-40" vertex="1" connectable="0">
          <mxGeometry x="0.4495" relative="1" as="geometry">
            <mxPoint as="offset" />
          </mxGeometry>
        </mxCell>
        <mxCell id="HkP_gd-xjNYq4AOfFM9T-42" style="edgeStyle=orthogonalEdgeStyle;rounded=0;orthogonalLoop=1;jettySize=auto;html=1;entryX=1;entryY=0.5;entryDx=0;entryDy=0;startArrow=classic;startFill=1;endArrow=none;endFill=0;exitX=0.5;exitY=1;exitDx=0;exitDy=0;" parent="1" source="HkP_gd-xjNYq4AOfFM9T-38" target="HkP_gd-xjNYq4AOfFM9T-46" edge="1">
          <mxGeometry relative="1" as="geometry" />
        </mxCell>
        <mxCell id="HkP_gd-xjNYq4AOfFM9T-43" value="i" style="edgeLabel;html=1;align=center;verticalAlign=middle;resizable=0;points=[];" parent="HkP_gd-xjNYq4AOfFM9T-42" vertex="1" connectable="0">
          <mxGeometry x="0.6235" y="1" relative="1" as="geometry">
            <mxPoint as="offset" />
          </mxGeometry>
        </mxCell>
        <mxCell id="HkP_gd-xjNYq4AOfFM9T-48" style="edgeStyle=orthogonalEdgeStyle;rounded=0;orthogonalLoop=1;jettySize=auto;html=1;entryX=0;entryY=0.5;entryDx=0;entryDy=0;" parent="1" source="HkP_gd-xjNYq4AOfFM9T-44" target="HkP_gd-xjNYq4AOfFM9T-46" edge="1">
          <mxGeometry relative="1" as="geometry" />
        </mxCell>
        <mxCell id="HkP_gd-xjNYq4AOfFM9T-49" value="i" style="edgeLabel;html=1;align=center;verticalAlign=middle;resizable=0;points=[];" parent="HkP_gd-xjNYq4AOfFM9T-48" vertex="1" connectable="0">
          <mxGeometry x="0.1386" relative="1" as="geometry">
            <mxPoint y="1" as="offset" />
          </mxGeometry>
        </mxCell>
        <mxCell id="HkP_gd-xjNYq4AOfFM9T-44" value="IIC" style="rounded=0;whiteSpace=wrap;html=1;strokeWidth=3;" parent="1" vertex="1">
          <mxGeometry x="240" y="830" width="50" height="30" as="geometry" />
        </mxCell>
        <mxCell id="HkP_gd-xjNYq4AOfFM9T-45" value="MI of social interaction" style="rounded=0;whiteSpace=wrap;html=1;strokeWidth=3;" parent="1" vertex="1">
          <mxGeometry x="341" y="790" width="91" height="30" as="geometry" />
        </mxCell>
        <mxCell id="HkP_gd-xjNYq4AOfFM9T-46" value="MI of outgroup" style="rounded=0;whiteSpace=wrap;html=1;strokeWidth=3;" parent="1" vertex="1">
          <mxGeometry x="341" y="880" width="90" height="30" as="geometry" />
        </mxCell>
        <mxCell id="HkP_gd-xjNYq4AOfFM9T-47" value="&lt;b&gt;&lt;font style=&quot;font-size: 14px;&quot;&gt;Version B&lt;/font&gt;&lt;/b&gt;" style="text;html=1;strokeColor=none;fillColor=none;align=center;verticalAlign=middle;whiteSpace=wrap;rounded=0;" parent="1" vertex="1">
          <mxGeometry x="90" y="845" width="90" height="30" as="geometry" />
        </mxCell>
        <mxCell id="HkP_gd-xjNYq4AOfFM9T-50" value="MI" style="rounded=0;whiteSpace=wrap;html=1;strokeWidth=3;" parent="1" vertex="1">
          <mxGeometry x="219.5" y="1030" width="91" height="30" as="geometry" />
        </mxCell>
        <mxCell id="HkP_gd-xjNYq4AOfFM9T-58" value="IIC" style="rounded=0;whiteSpace=wrap;html=1;strokeWidth=3;" parent="1" vertex="1">
          <mxGeometry x="590" y="1032.5" width="50" height="30" as="geometry" />
        </mxCell>
        <mxCell id="HkP_gd-xjNYq4AOfFM9T-62" style="edgeStyle=orthogonalEdgeStyle;rounded=0;orthogonalLoop=1;jettySize=auto;html=1;entryX=0.5;entryY=0;entryDx=0;entryDy=0;" parent="1" source="HkP_gd-xjNYq4AOfFM9T-59" target="HkP_gd-xjNYq4AOfFM9T-50" edge="1">
          <mxGeometry relative="1" as="geometry" />
        </mxCell>
        <mxCell id="HkP_gd-xjNYq4AOfFM9T-63" value="i" style="edgeLabel;html=1;align=center;verticalAlign=middle;resizable=0;points=[];" parent="HkP_gd-xjNYq4AOfFM9T-62" vertex="1" connectable="0">
          <mxGeometry x="-0.1574" relative="1" as="geometry">
            <mxPoint as="offset" />
          </mxGeometry>
        </mxCell>
        <mxCell id="HkP_gd-xjNYq4AOfFM9T-67" style="edgeStyle=orthogonalEdgeStyle;rounded=0;orthogonalLoop=1;jettySize=auto;html=1;entryX=0.5;entryY=0;entryDx=0;entryDy=0;" parent="1" source="HkP_gd-xjNYq4AOfFM9T-59" target="HkP_gd-xjNYq4AOfFM9T-66" edge="1">
          <mxGeometry relative="1" as="geometry" />
        </mxCell>
        <mxCell id="HkP_gd-xjNYq4AOfFM9T-59" value="MI of social interaction" style="rounded=0;whiteSpace=wrap;html=1;strokeWidth=3;" parent="1" vertex="1">
          <mxGeometry x="345" y="980" width="91" height="30" as="geometry" />
        </mxCell>
        <mxCell id="HkP_gd-xjNYq4AOfFM9T-64" style="edgeStyle=orthogonalEdgeStyle;rounded=0;orthogonalLoop=1;jettySize=auto;html=1;entryX=0.5;entryY=1;entryDx=0;entryDy=0;" parent="1" source="HkP_gd-xjNYq4AOfFM9T-60" target="HkP_gd-xjNYq4AOfFM9T-50" edge="1">
          <mxGeometry relative="1" as="geometry" />
        </mxCell>
        <mxCell id="HkP_gd-xjNYq4AOfFM9T-65" value="i" style="edgeLabel;html=1;align=center;verticalAlign=middle;resizable=0;points=[];" parent="HkP_gd-xjNYq4AOfFM9T-64" vertex="1" connectable="0">
          <mxGeometry x="-0.4874" y="2" relative="1" as="geometry">
            <mxPoint x="1" as="offset" />
          </mxGeometry>
        </mxCell>
        <mxCell id="HkP_gd-xjNYq4AOfFM9T-68" style="edgeStyle=orthogonalEdgeStyle;rounded=0;orthogonalLoop=1;jettySize=auto;html=1;entryX=0.5;entryY=1;entryDx=0;entryDy=0;" parent="1" source="HkP_gd-xjNYq4AOfFM9T-60" target="HkP_gd-xjNYq4AOfFM9T-66" edge="1">
          <mxGeometry relative="1" as="geometry" />
        </mxCell>
        <mxCell id="HkP_gd-xjNYq4AOfFM9T-60" value="MI of outgroup" style="rounded=0;whiteSpace=wrap;html=1;strokeWidth=3;" parent="1" vertex="1">
          <mxGeometry x="345" y="1080" width="90" height="30" as="geometry" />
        </mxCell>
        <mxCell id="HkP_gd-xjNYq4AOfFM9T-61" value="&lt;b&gt;&lt;font style=&quot;font-size: 14px;&quot;&gt;Version C&lt;/font&gt;&lt;/b&gt;" style="text;html=1;strokeColor=none;fillColor=none;align=center;verticalAlign=middle;whiteSpace=wrap;rounded=0;" parent="1" vertex="1">
          <mxGeometry x="90" y="1045" width="90" height="30" as="geometry" />
        </mxCell>
        <mxCell id="HkP_gd-xjNYq4AOfFM9T-70" style="edgeStyle=orthogonalEdgeStyle;rounded=0;orthogonalLoop=1;jettySize=auto;html=1;entryX=0;entryY=0.5;entryDx=0;entryDy=0;" parent="1" source="HkP_gd-xjNYq4AOfFM9T-66" target="HkP_gd-xjNYq4AOfFM9T-58" edge="1">
          <mxGeometry relative="1" as="geometry" />
        </mxCell>
        <mxCell id="HkP_gd-xjNYq4AOfFM9T-71" value="i" style="edgeLabel;html=1;align=center;verticalAlign=middle;resizable=0;points=[];" parent="HkP_gd-xjNYq4AOfFM9T-70" vertex="1" connectable="0">
          <mxGeometry x="-0.1385" y="1" relative="1" as="geometry">
            <mxPoint y="1" as="offset" />
          </mxGeometry>
        </mxCell>
        <mxCell id="HkP_gd-xjNYq4AOfFM9T-66" value="AND" style="rhombus;whiteSpace=wrap;html=1;" parent="1" vertex="1">
          <mxGeometry x="466" y="1020" width="59" height="55" as="geometry" />
        </mxCell>
        <mxCell id="WUrqiauPszfEcTlT8KK8-2" style="edgeStyle=orthogonalEdgeStyle;rounded=0;orthogonalLoop=1;jettySize=auto;html=1;entryX=0;entryY=0.5;entryDx=0;entryDy=0;startArrow=classic;startFill=1;" edge="1" source="WUrqiauPszfEcTlT8KK8-4" target="WUrqiauPszfEcTlT8KK8-7" parent="1">
          <mxGeometry relative="1" as="geometry" />
        </mxCell>
        <mxCell id="WUrqiauPszfEcTlT8KK8-3" value="i" style="edgeLabel;html=1;align=center;verticalAlign=middle;resizable=0;points=[];" vertex="1" connectable="0" parent="WUrqiauPszfEcTlT8KK8-2">
          <mxGeometry x="0.1386" relative="1" as="geometry">
            <mxPoint y="1" as="offset" />
          </mxGeometry>
        </mxCell>
        <mxCell id="WUrqiauPszfEcTlT8KK8-9" value="&lt;font style=&quot;font-size: 14px;&quot;&gt;&amp;nbsp; &amp;nbsp;i 1 &amp;nbsp;&amp;nbsp;&lt;/font&gt;" style="edgeLabel;html=1;align=center;verticalAlign=middle;resizable=0;points=[];" vertex="1" connectable="0" parent="WUrqiauPszfEcTlT8KK8-2">
          <mxGeometry x="0.1509" relative="1" as="geometry">
            <mxPoint as="offset" />
          </mxGeometry>
        </mxCell>
        <mxCell id="WUrqiauPszfEcTlT8KK8-4" value="IIC" style="rounded=0;whiteSpace=wrap;html=1;strokeWidth=3;" vertex="1" parent="1">
          <mxGeometry x="214" y="1295" width="50" height="30" as="geometry" />
        </mxCell>
        <mxCell id="WUrqiauPszfEcTlT8KK8-5" value="MI of social interaction" style="rounded=0;whiteSpace=wrap;html=1;strokeWidth=3;" vertex="1" parent="1">
          <mxGeometry x="390" y="1265" width="91" height="30" as="geometry" />
        </mxCell>
        <mxCell id="WUrqiauPszfEcTlT8KK8-6" value="MI of outgroup" style="rounded=0;whiteSpace=wrap;html=1;strokeWidth=3;" vertex="1" parent="1">
          <mxGeometry x="390" y="1325" width="90" height="30" as="geometry" />
        </mxCell>
        <mxCell id="WUrqiauPszfEcTlT8KK8-11" style="rounded=0;orthogonalLoop=1;jettySize=auto;html=1;entryX=1;entryY=0.75;entryDx=0;entryDy=0;exitX=0.205;exitY=0.172;exitDx=0;exitDy=0;exitPerimeter=0;" edge="1" parent="1" source="WUrqiauPszfEcTlT8KK8-10" target="WUrqiauPszfEcTlT8KK8-5">
          <mxGeometry relative="1" as="geometry" />
        </mxCell>
        <mxCell id="WUrqiauPszfEcTlT8KK8-13" value="1" style="edgeLabel;html=1;align=center;verticalAlign=middle;resizable=0;points=[];" vertex="1" connectable="0" parent="WUrqiauPszfEcTlT8KK8-11">
          <mxGeometry x="-0.2764" relative="1" as="geometry">
            <mxPoint as="offset" />
          </mxGeometry>
        </mxCell>
        <mxCell id="WUrqiauPszfEcTlT8KK8-12" style="rounded=0;orthogonalLoop=1;jettySize=auto;html=1;exitX=0;exitY=0.75;exitDx=0;exitDy=0;entryX=1;entryY=0.5;entryDx=0;entryDy=0;" edge="1" parent="1" source="WUrqiauPszfEcTlT8KK8-10" target="WUrqiauPszfEcTlT8KK8-6">
          <mxGeometry relative="1" as="geometry" />
        </mxCell>
        <mxCell id="WUrqiauPszfEcTlT8KK8-14" value="1" style="edgeLabel;html=1;align=center;verticalAlign=middle;resizable=0;points=[];" vertex="1" connectable="0" parent="WUrqiauPszfEcTlT8KK8-12">
          <mxGeometry x="-0.1959" relative="1" as="geometry">
            <mxPoint as="offset" />
          </mxGeometry>
        </mxCell>
        <mxCell id="WUrqiauPszfEcTlT8KK8-10" value="IS" style="verticalLabelPosition=middle;verticalAlign=middle;html=1;shape=hexagon;perimeter=hexagonPerimeter2;arcSize=6;size=0.27;align=center;labelPosition=center;" vertex="1" parent="1">
          <mxGeometry x="500" y="1295" width="46" height="30" as="geometry" />
        </mxCell>
      </root>
    </mxGraphModel>
  </diagram>
</mxfile>
